<svg viewBox="0 0 24 24" width="24" height="24" class="primary" fill="#3d4752" xmlns="http://www.w3.org/2000/svg"><path d="M10.5 11c-2 .5-2.5-.766-2.5-1.453C8 8.859 8.61 8 9.625 8c1.015 0 1.875.703 1.875 1.887 0 1.707-1.14 3.228-2.526 4.113l-.496-.5c1.063-.68 2-1.854 2.022-2.5zM15 11c-2 .5-2.5-.766-2.5-1.453 0-.688.61-1.547 1.625-1.547C15.14 8 16 8.703 16 9.887c0 1.707-1.14 3.228-2.526 4.113l-.496-.5c1.063-.68 2-1.854 2.022-2.5z"></path><path fill-rule="evenodd" clip-rule="evenodd" d="M5 4a2 2 0 00-2 2v10a2 2 0 002 2h3.945a1 1 0 01.81.412l1.84 2.532a.5.5 0 00.81 0l1.84-2.532a1 1 0 01.81-.412H19a2 2 0 002-2V6a2 2 0 00-2-2H5zM4 6a1 1 0 011-1h14a1 1 0 011 1v10a1 1 0 01-1 1h-3.945a2 2 0 00-1.618.824L12 19.8l-1.437-1.976A2 2 0 008.945 17H5a1 1 0 01-1-1V6z"></path></svg>