<svg class="primary" viewBox="0 0 24 24" width="24" height="24" fill="#3d4752" xmlns="http://www.w3.org/2000/svg"><path d="M7 18.25c0 .414.336.75.75.75h4.539C15.308 19 17 17.688 17 15.084v-.078c0-1.86-.885-2.898-2.75-3.31 1.558-.489 2.173-1.585 2.173-2.976v-.078c0-2.545-1.673-3.642-4.5-3.642H7.75a.75.75 0 00-.75.75v12.5zm2.5-1.11v-4.484h2.308c1.884 0 2.673.724 2.673 2.173v.079c0 1.449-.789 2.232-2.5 2.232H9.5zm0-6.246V6.86h2.077c1.634 0 2.384.568 2.384 1.9v.078c0 1.43-.653 2.056-2.346 2.056H9.5z"></path></svg>