<svg class="primary" viewBox="0 0 24 24" width="24" height="24" fill="#3d4752" xmlns="http://www.w3.org/2000/svg"><path d="M12.5 5c-1.59 0-2.757.417-3.633 1.057-.762.556-1.276 1.259-1.657 1.93C4.395 7.957 2 10.357 2 13.5 2 16.808 4.757 19 7.5 19h10c1.074 0 2.19-.267 3.05-.913.88-.66 1.45-1.685 1.45-3.087 0-1.446-.734-2.448-1.649-3.07a5.202 5.202 0 00-2.788-.867.5.5 0 000 1c.63 0 1.513.21 2.226.694C20.484 13.23 21 13.946 21 15c0 1.098-.43 1.823-1.05 2.288-.64.48-1.524.712-2.45.712h-10C5.243 18 3 16.192 3 13.5c0-2.736 2.14-4.681 4.461-4.502a.5.5 0 00.482-.265c.36-.687.82-1.362 1.513-1.869.687-.5 1.641-.864 3.044-.864.95 0 2.153.36 3.146 1.353a.5.5 0 00.708-.706C15.155 5.447 13.69 5 12.5 5z"></path><path d="M11.854 14.854l7-7a.5.5 0 00-.708-.708L11.5 13.793l-2.646-2.647a.5.5 0 00-.708.708l3 3a.5.5 0 00.708 0z"></path></svg>