<svg class="primary" viewBox="0 0 24 24" width="24" height="24" fill="#3d4752" xmlns="http://www.w3.org/2000/svg"><path fill-rule="evenodd" clip-rule="evenodd" d="M7.5 3A1.5 1.5 0 006 4.5V7h-.5A1.5 1.5 0 004 8.5v4.964l-.832 5.824A1.5 1.5 0 004.653 21h3.694a1.5 1.5 0 001.485-1.712L9.076 14h5.848l-.756 5.288A1.5 1.5 0 0015.653 21h3.694a1.5 1.5 0 001.485-1.712L20 13.464V8.5A1.5 1.5 0 0018.5 7H18V4.5A1.5 1.5 0 0016.5 3h-2A1.5 1.5 0 0013 4.5V7h-2V4.5A1.5 1.5 0 009.5 3h-2zM10 8H5.5a.5.5 0 00-.5.5V13h5V8zm1 5h2V8h-2v5zm3-5v5h5V8.5a.5.5 0 00-.5-.5H14zm0-1h3V4.5a.5.5 0 00-.5-.5h-2a.5.5 0 00-.5.5V7zm-4 0H7V4.5a.5.5 0 01.5-.5h2a.5.5 0 01.5.5V7zM4.158 19.43L4.934 14h3.132l.776 5.43a.5.5 0 01-.495.57H4.653a.5.5 0 01-.495-.57zm11 0l.776-5.43h3.132l.776 5.43a.5.5 0 01-.495.57h-3.694a.5.5 0 01-.495-.57z"></path></svg>