<svg class="primary" viewBox="0 0 24 24" width="24" height="24" fill="#3d4752" xmlns="http://www.w3.org/2000/svg"><path fill-rule="evenodd" clip-rule="evenodd" d="M11.101 13a7.03 7.03 0 001.291 1H6.5a.5.5 0 010-1h4.601zM9.29 10c.103.345.231.68.384 1H6.5a.5.5 0 010-1h2.79zM20 13.745V19a1 1 0 01-1 1H5a1 1 0 01-1-1V8a1 1 0 011-1h4.07a6.96 6.96 0 01.22-1H5a2 2 0 00-2 2v11a2 2 0 002 2h14a2 2 0 002-2v-6.101c-.306.312-.64.596-1 .846zM6.5 16a.5.5 0 000 1h11a.5.5 0 000-1h-11z"></path><path fill-rule="evenodd" clip-rule="evenodd" d="M21 8a5 5 0 11-10 0 5 5 0 0110 0zm1 0a6 6 0 11-12 0 6 6 0 0112 0zm-2.646-1.646a.5.5 0 00-.708-.708L15 9.293l-1.646-1.647a.5.5 0 00-.708.708l2 2a.5.5 0 00.708 0l4-4z"></path></svg>