<svg class="primary" viewBox="0 0 24 24" width="24" height="24" fill="#3d4752" xmlns="http://www.w3.org/2000/svg"><path d="M5.182 12.96a4.5 4.5 0 006.364 6.364l2.121-2.121a.5.5 0 00-.707-.707l-2.121 2.121a3.5 3.5 0 01-4.95-4.95l2.121-2.121a.5.5 0 10-.707-.707L5.182 12.96zM10.839 7.303a.5.5 0 00.707.707l2.121-2.12a3.5 3.5 0 114.95 4.949l-2.121 2.121a.5.5 0 00.707.707l2.121-2.121a4.5 4.5 0 10-6.364-6.364L10.84 7.303z"></path><path d="M8.837 14.961a.5.5 0 10.708.708l5.909-5.91a.5.5 0 00-.707-.707l-5.91 5.91z"></path></svg>