<svg class="primary" viewBox="0 0 24 24" width="24" height="24" fill="#3d4752" xmlns="http://www.w3.org/2000/svg"><path d="M12.5 9.5v2h2a.5.5 0 010 1h-2v2a.5.5 0 01-1 0v-2h-2a.5.5 0 010-1h2v-2a.5.5 0 011 0z"></path><path fill-rule="evenodd" clip-rule="evenodd" d="M12.5 4V2.5a.5.5 0 00-1 0V4H6a2 2 0 00-2 2v5.5H2.5a.5.5 0 000 1H4V18a2 2 0 002 2h5.5v1.5a.5.5 0 001 0V20H18a2 2 0 002-2v-5.5h1.5a.5.5 0 000-1H20V6a2 2 0 00-2-2h-5.5zm-1 1v1.5a.5.5 0 001 0V5H18a1 1 0 011 1v5.5h-1.5a.5.5 0 000 1H19V18a1 1 0 01-1 1h-5.5v-1.5a.5.5 0 00-1 0V19H6a1 1 0 01-1-1v-5.5h1.5a.5.5 0 000-1H5V6a1 1 0 011-1h5.5z"></path></svg>