<svg xmlns="http://www.w3.org/2000/svg" width="24" height="24" class="primary" fill="#282C33" viewBox="0 0 24 24"><path class="primary" fill="#282C33" fill-rule="evenodd" d="M21.804 3.103a.5.5 0 0 1 .192.463l-2.004 14.992a.5.5 0 0 1-.686.397l-4.346-1.783-4.126 3.7a.5.5 0 0 1-.81-.222L8.03 14.32l-5.72-2.358a.5.5 0 0 1-.004-.923l19-8a.5.5 0 0 1 .498.064ZM9.017 14.122l1.467 4.662 1.036-3.519a.498.498 0 0 1 .09-.17l6.712-8.413-9.305 7.44Zm9.359-8.764L3.801 11.495l4.554 1.876 10.021-8.013Zm2.39-.136-7.96 9.976 2.243.93h.002l4.035 1.656 1.68-12.562Zm-6.832 11.526-1.611-.667-.846 2.87 2.457-2.203Z" clip-rule="evenodd"></path></svg>