<svg class="primary" viewBox="0 0 24 24" width="24" height="24" fill="#3d4752" xmlns="http://www.w3.org/2000/svg"><path fill-rule="evenodd" clip-rule="evenodd" d="M8.5 5.75a.75.75 0 00-1.5 0h.75H7v5.75c0 1.016.157 2.375.878 3.5.759 1.183 2.072 2 4.122 2s3.363-.817 4.122-2c.721-1.125.878-2.484.878-3.5V5.75h-.75.75a.75.75 0 00-1.5 0h.75-.75V11.5c0 .906-.148 1.922-.641 2.69-.457.713-1.269 1.31-2.859 1.31s-2.403-.598-2.859-1.31c-.493-.768-.641-1.784-.641-2.69V5.75h-.75.75zM7.5 19a.5.5 0 000 1h9a.5.5 0 000-1h-9z"></path></svg>